<?xml version="1.0" encoding="UTF-8" standalone="no"?>
<svg
   viewBox="149 203 313.91 355.85562"
   version="1.1"
   width="313.91"
   height="355.85562"
   xmlns="http://www.w3.org/2000/svg"
   xmlns:svg="http://www.w3.org/2000/svg">
  <g>
    <path
       d="M 452.69,284.92 317.13,206.65 a 21.46,21.46 0 0 0 -21.4,0 l -135.56,78.27 a 21.46,21.46 0 0 0 -10.69,18.53 V 460 a 21.45,21.45 0 0 0 10.7,18.53 l 135.56,78.26 a 21.46,21.46 0 0 0 21.4,0 L 452.7,478.53 A 21.45,21.45 0 0 0 463.39,460 V 303.45 a 21.45,21.45 0 0 0 -10.7,-18.53 z"
       style="fill:#009639"/>
    <path
       d="m 384.85,441.92 c 0,9.29 -8.21,17 -19.84,17 -8.33,0 -17.94,-3.36 -23.81,-10.65 L 262.93,354.6 v 87.34 a 17,17 0 0 1 -17,17 h -1 a 17,17 0 0 1 -17,-17 V 321.52 c 0,-9.29 8.21,-17 19.84,-17 8.33,0 17.94,3.36 23.81,10.65 l 78.27,93.67 v -87.33 a 17,17 0 0 1 17,-17 h 1 a 17,17 0 0 1 17,17 z"
       style="fill:#ffffff"/>
  </g>
</svg>
